<svg width="142" height="36" viewBox="0 0 142 36" fill="none" xmlns="http://www.w3.org/2000/svg">
<path d="M22.1484 14.3283C22.4964 12.9535 27.5129 10.8671 35.8467 8.05567C43.0234 5.7261 54.8235 1.84496 63.8035 0.607242C71.0978 3.33907 77.7187 6.79585 84.9723 7.74624C94.6257 8.06893 110.38 2.09693 119.826 0.0546875L119.866 0.0988918C116.057 4.63868 83.5216 13.3248 78.1073 14.1868C70.795 11.4152 62.6059 6.84447 56.098 6.61903C46.648 6.72954 30.8934 12.3921 22.1891 14.3769" fill="white"/>
<path d="M74.8895 23.8828H72.3089L63.8125 33.4354L66.3207 33.4265L73.5156 25.4079L77.2531 33.4309H79.5444L74.8895 23.8828Z" fill="white"/>
<path d="M121.761 23.8833L119.018 31.5218L111.362 23.8789L108.614 23.8833L105.297 33.427H107.371L110.119 25.5145L118.204 33.427H120.731L124.048 23.8833H121.761Z" fill="white"/>
<path d="M59.9499 23.8872L50.6083 31.6716L46.6313 23.8828L43.4813 23.8872L40.1641 33.4265H42.2385L45.0043 25.4653L49.3158 33.4309H51.3766L61.0074 25.3548L57.9659 33.4309H60.2753L63.5925 23.8872H59.9499Z" fill="white"/>
<path d="M102.255 23.8828H102.102L98.7891 33.4265H98.9382H100.714H100.863L104.176 23.8828H102.255Z" fill="white"/>
<path d="M84.6676 23.9005L81.3594 33.4265H83.4338L86.1544 25.6024C86.1544 25.6024 90.5427 25.5537 91.5822 25.5184C93.4984 25.4609 94.2758 25.7306 94.2758 26.6677C94.2758 27.6048 93.6385 27.8082 90.3665 28.3519L86.8504 28.9354L91.7313 33.4265L94.3119 33.4177L90.5202 29.9786C92.4409 29.6117 94.0091 29.3553 94.9265 28.8823C95.853 28.4049 96.0835 27.6269 96.1423 26.9329C96.2191 26.0179 95.853 25.2797 95.2022 24.705C94.2712 23.8872 93.286 23.8828 91.7404 23.8828C85.246 23.8828 84.6676 23.9005 84.6676 23.9005Z" fill="white"/>
<path d="M125.281 33.4231H135.929V33.4187L135.685 33.4231L136.209 31.9069L127.907 31.8141L128.721 29.4668H134.528L135.246 28.039H129.213L130.094 25.5061L138.428 25.5106L138.998 23.875H128.598L125.281 33.4231Z" fill="white"/>
<path d="M36.7165 23.8828C36.4363 24.6918 35.8849 26.2522 34.9314 29.0547C34.7325 29.6382 34.154 30.9732 33.8015 31.2782C33.092 31.8882 32.4593 31.7954 31.6141 31.8086C30.3577 31.8263 29.5759 31.8307 28.8076 31.8086C27.741 31.7777 27.1716 31.4904 26.7422 30.9776C26.3943 30.5577 26.0372 30.0361 26.4259 29.0238L28.1884 23.8828H25.9242L24.2204 28.7939C24.0261 29.3509 23.9448 29.9432 24.0397 30.5223C24.3786 32.5911 26.3355 33.3116 26.8236 33.4663C27.4202 33.6564 28.3557 33.7669 29.7883 33.7669C31.8175 33.7713 34.0862 34.0144 35.2839 32.8386C35.8985 32.233 36.5177 31.066 36.9877 29.731C38.2893 26.0223 38.8406 24.3691 39.0078 23.8828H36.7165Z" fill="white"/>
<path d="M19.2219 23.8828L16.4786 31.5213L8.82281 23.8828L6.07503 23.8872L2.75781 33.4265H4.83221L7.57999 25.514L15.6652 33.4265H18.1915L21.5087 23.8828H19.2219Z" fill="white"/>
</svg>
